# xmcd
#
# Track frame offsets:
#	183
#	16733
#	29530
#	58953
#	82125
#	114005
#	135738
#	155050
#	184993
#	208798
#	242290
#
# Disc length: 3659 seconds
#
# Revision: 1830275410
# Processed by: cddbd v1.5.2PL0 Copyright (c) Steve Scherf et al.
# Submitted via: EZCDAudioConverter 8.0.7.1
#
DISCID=930e490b
DTITLE=Eric Clapton - Backtrackin’ [CD2) (Polydor 821 937-2)
DYEAR=1984
DGENRE=Blues
TTITLE0=Eric Clapton - Cocaine
TTITLE1=Cream - Strange Brew
TTITLE2=Cream - Spoonful
TTITLE3=Eric Clapton - Let It Rain
TTITLE4=Derek and the Dominos - Have You Ever Loved a Woman?
TTITLE5=Blind Faith - Presence of the Lord
TTITLE6=Cream - Crossroads
TTITLE7=Derek and the Dominos - Roll It Over
TTITLE8=Eric Clapton - Can’t Find My Way Home
TTITLE9=Eric Clapton - Blues Power
TTITLE10=Eric Clapton - Further On up the Road (live)
EXTD=
EXTT0=
EXTT1=
EXTT2=
EXTT3=
EXTT4=
EXTT5=
EXTT6=
EXTT7=
EXTT8=
EXTT9=
EXTT10=
PLAYORDER=
